{
  "accessors": [
    {
      "bufferView": 2,
      "componentType": 5126,
      "count": 65532,
      "max": [
        2.1388900279998779,
        3.6092491149902344,
        1.0781190395355225
      ],
      "min": [
        -2.5621480941772461,
        -4.064143180847168,
        -2.7650229930877686
      ],
      "type": "VEC3"
    },
    {
      "bufferView": 2,
      "byteOffset": 786384,
      "componentType": 5126,
      "count": 65532,
      "max": [
        0.99992173910140991,
        0.99999552965164185,
        0.99993962049484253
      ],
      "min": [
        -0.99979913234710693,
        -0.99999934434890747,
        -0.99998271465301514
      ],
      "type": "VEC3"
    },
    {
      "bufferView": 3,
      "componentType": 5126,
      "count": 65532,
      "max": [
        0.99997484683990479,
        0.99980813264846802,
        0.99996578693389893,
        1
      ],
      "min": [
        -0.99999701976776123,
        -0.99994969367980957,
        -0.99998778104782104,
        -1
      ],
      "type": "VEC4"
    },
    {
      "bufferView": 1,
      "componentType": 5126,
      "count": 65532,
      "max": [
        0.98773097991943359,
        0.84987097978591919
      ],
      "min": [
        0.011184000410139561,
        0.0036009999457746744
      ],
      "type": "VEC2"
    },
    {
      "bufferView": 0,
      "componentType": 5125,
      "count": 98298,
      "max": [
        65531
      ],
      "min": [
        0
      ],
      "type": "SCALAR"
    },
    {
      "bufferView": 2,
      "byteOffset": 1572768,
      "componentType": 5126,
      "count": 65532,
      "max": [
        1.1023609638214111,
        1.8228009939193726,
        1.0560630559921265
      ],
      "min": [
        -2.3992938995361328,
        -4.0019760131835938,
        -2.2839510440826416
      ],
      "type": "VEC3"
    },
    {
      "bufferView": 2,
      "byteOffset": 2359152,
      "componentType": 5126,
      "count": 65532,
      "max": [
        0.99990403652191162,
        0.99992960691452026,
        0.99991261959075928
      ],
      "min": [
        -0.99998581409454346,
        -0.99999922513961792,
        -0.99999022483825684
      ],
      "type": "VEC3"
    },
    {
      "bufferView": 3,
      "byteOffset": 1048512,
      "componentType": 5126,
      "count": 65532,
      "max": [
        0.99997496604919434,
        0.99370932579040527,
        0.99990171194076538,
        1
      ],
      "min": [
        -0.99998587369918823,
        -0.9999585747718811,
        -0.99912381172180176,
        1
      ],
      "type": "VEC4"
    },
    {
      "bufferView": 1,
      "byteOffset": 524256,
      "componentType": 5126,
      "count": 65532,
      "max": [
        0.82142698764801025,
        1
      ],
      "min": [
        0.028821000829339027,
        0.044982001185417175
      ],
      "type": "VEC2"
    },
    {
      "bufferView": 0,
      "byteOffset": 393192,
      "componentType": 5125,
      "count": 98298,
      "max": [
        65531
      ],
      "min": [
        0
      ],
      "type": "SCALAR"
    },
    {
      "bufferView": 2,
      "byteOffset": 3145536,
      "componentType": 5126,
      "count": 65532,
      "max": [
        -0.7205740213394165,
        1.7539399862289429,
        0.060031000524759293
      ],
      "min": [
        -2.7662320137023926,
        -0.49100300669670105,
        -2.4256350994110107
      ],
      "type": "VEC3"
    },
    {
      "bufferView": 2,
      "byteOffset": 3931920,
      "componentType": 5126,
      "count": 65532,
      "max": [
        0.99982935190200806,
        0.99986749887466431,
        0.9989398717880249
      ],
      "min": [
        -0.99800008535385132,
        -0.99999988079071045,
        -0.99994397163391113
      ],
      "type": "VEC3"
    },
    {
      "bufferView": 3,
      "byteOffset": 2097024,
      "componentType": 5126,
      "count": 65532,
      "max": [
        0.99999713897705078,
        0.93970799446105957,
        0.99999821186065674,
        1
      ],
      "min": [
        -0.99997776746749878,
        -0.99992465972900391,
        -0.99999171495437622,
        -1
      ],
      "type": "VEC4"
    },
    {
      "bufferView": 1,
      "byteOffset": 1048512,
      "componentType": 5126,
      "count": 65532,
      "max": [
        0.85080701112747192,
        0.7601889967918396
      ],
      "min": [
        0.042171001434326172,
        0.23212499916553497
      ],
      "type": "VEC2"
    },
    {
      "bufferView": 0,
      "byteOffset": 786384,
      "componentType": 5125,
      "count": 98298,
      "max": [
        65531
      ],
      "min": [
        0
      ],
      "type": "SCALAR"
    },
    {
      "bufferView": 2,
      "byteOffset": 4718304,
      "componentType": 5126,
      "count": 65532,
      "max": [
        2.1308069229125977,
        0.82273197174072266,
        1.0688740015029907
      ],
      "min": [
        -1.8834840059280396,
        -4.0464048385620117,
        -1.9575059413909912
      ],
      "type": "VEC3"
    },
    {
      "bufferView": 2,
      "byteOffset": 5504688,
      "componentType": 5126,
      "count": 65532,
      "max": [
        0.99976593255996704,
        0.99986416101455688,
        0.99993252754211426
      ],
      "min": [
        -0.99999213218688965,
        -0.99999833106994629,
        -0.99995207786560059
      ],
      "type": "VEC3"
    },
    {
      "bufferView": 3,
      "byteOffset": 3145536,
      "componentType": 5126,
      "count": 65532,
      "max": [
        0.99999117851257324,
        0.99958544969558716,
        0.99429130554199219,
        1
      ],
      "min": [
        -0.99997889995574951,
        -0.99741405248641968,
        -0.99996578693389893,
        1
      ],
      "type": "VEC4"
    },
    {
      "bufferView": 1,
      "byteOffset": 1572768,
      "componentType": 5126,
      "count": 65532,
      "max": [
        0.85099101066589355,
        0.68602800369262695
      ],
      "min": [
        0.00022600000374950469,
        0
      ],
      "type": "VEC2"
    },
    {
      "bufferView": 0,
      "byteOffset": 1179576,
      "componentType": 5125,
      "count": 98298,
      "max": [
        65531
      ],
      "min": [
        0
      ],
      "type": "SCALAR"
    },
    {
      "bufferView": 2,
      "byteOffset": 6291072,
      "componentType": 5126,
      "count": 65532,
      "max": [
        2.0835230350494385,
        0.90100198984146118,
        1.0333360433578491
      ],
      "min": [
        -2.02640700340271,
        -4.0667409896850586,
        -1.1371300220489502
      ],
      "type": "VEC3"
    },
    {
      "bufferView": 2,
      "byteOffset": 7077456,
      "componentType": 5126,
      "count": 65532,
      "max": [
        0.99998193979263306,
        0.99997138977050781,
        0.99999046325683594
      ],
      "min": [
        -0.99984437227249146,
        -0.99999916553497314,
        -0.99998182058334351
      ],
      "type": "VEC3"
    },
    {
      "bufferView": 3,
      "byteOffset": 4194048,
      "componentType": 5126,
      "count": 65532,
      "max": [
        0.72570067644119263,
        0.99997240304946899,
        0.99988377094268799,
        1
      ],
      "min": [
        -0.99997234344482422,
        -0.99969214200973511,
        -0.99988234043121338,
        1
      ],
      "type": "VEC4"
    },
    {
      "bufferView": 1,
      "byteOffset": 2097024,
      "componentType": 5126,
      "count": 65532,
      "max": [
        0.790507972240448,
        0.99769997596740723
      ],
      "min": [
        0,
        0
      ],
      "type": "VEC2"
    },
    {
      "bufferView": 0,
      "byteOffset": 1572768,
      "componentType": 5125,
      "count": 98298,
      "max": [
        65531
      ],
      "min": [
        0
      ],
      "type": "SCALAR"
    },
    {
      "bufferView": 2,
      "byteOffset": 7863840,
      "componentType": 5126,
      "count": 65532,
      "max": [
        1.384145975112915,
        3.8355550765991211,
        1.0282419919967651
      ],
      "min": [
        -2.0704391002655029,
        -3.9858028888702393,
        -2.6902859210968018
      ],
      "type": "VEC3"
    },
    {
      "bufferView": 2,
      "byteOffset": 8650224,
      "componentType": 5126,
      "count": 65532,
      "max": [
        0.99980741739273071,
        0.9901270866394043,
        0.9999011754989624
      ],
      "min": [
        -0.99991947412490845,
        -0.99991071224212646,
        -0.99999541044235229
      ],
      "type": "VEC3"
    },
    {
      "bufferView": 3,
      "byteOffset": 5242560,
      "componentType": 5126,
      "count": 65532,
      "max": [
        0.9994741678237915,
        0.99999856948852539,
        0.99998605251312256,
        1
      ],
      "min": [
        -0.99999874830245972,
        -0.99851173162460327,
        -0.99976068735122681,
        -1
      ],
      "type": "VEC4"
    },
    {
      "bufferView": 1,
      "byteOffset": 2621280,
      "componentType": 5126,
      "count": 65532,
      "max": [
        0.99983400106430054,
        0.96233898401260376
      ],
      "min": [
        0.0068350001238286495,
        0.025758000090718269
      ],
      "type": "VEC2"
    },
    {
      "bufferView": 0,
      "byteOffset": 1965960,
      "componentType": 5125,
      "count": 98298,
      "max": [
        65531
      ],
      "min": [
        0
      ],
      "type": "SCALAR"
    },
    {
      "bufferView": 2,
      "byteOffset": 9436608,
      "componentType": 5126,
      "count": 65532,
      "max": [
        2.4355878829956055,
        3.9912540912628174,
        -0.12268000096082687
      ],
      "min": [
        -0.78906899690628052,
        -0.59705102443695068,
        -2.8218410015106201
      ],
      "type": "VEC3"
    },
    {
      "bufferView": 2,
      "byteOffset": 10222992,
      "componentType": 5126,
      "count": 65532,
      "max": [
        0.99974852800369263,
        0.99998515844345093,
        0.99987632036209106
      ],
      "min": [
        -0.99978440999984741,
        -0.99952632188796997,
        -0.99997526407241821
      ],
      "type": "VEC3"
    },
    {
      "bufferView": 3,
      "byteOffset": 6291072,
      "componentType": 5126,
      "count": 65532,
      "max": [
        0.99999070167541504,
        0.93607985973358154,
        0.9996788501739502,
        1
      ],
      "min": [
        -0.99998056888580322,
        -0.99999499320983887,
        -0.99999785423278809,
        1
      ],
      "type": "VEC4"
    },
    {
      "bufferView": 1,
      "byteOffset": 3145536,
      "componentType": 5126,
      "count": 65532,
      "max": [
        0.99953097105026245,
        0.78805297613143921
      ],
      "min": [
        0.057160999625921249,
        0
      ],
      "type": "VEC2"
    },
    {
      "bufferView": 0,
      "byteOffset": 2359152,
      "componentType": 5125,
      "count": 98298,
      "max": [
        65531
      ],
      "min": [
        0
      ],
      "type": "SCALAR"
    },
    {
      "bufferView": 2,
      "byteOffset": 11009376,
      "componentType": 5126,
      "count": 65532,
      "max": [
        2.2824440002441406,
        1.8708120584487915,
        0.0010799999581649899
      ],
      "min": [
        -0.059294998645782471,
        -0.89812099933624268,
        -2.563086986541748
      ],
      "type": "VEC3"
    },
    {
      "bufferView": 2,
      "byteOffset": 11795760,
      "componentType": 5126,
      "count": 65532,
      "max": [
        0.94169282913208008,
        1,
        0.99999827146530151
      ],
      "min": [
        -0.99998229742050171,
        -0.99994772672653198,
        -0.99983638525009155
      ],
      "type": "VEC3"
    },
    {
      "bufferView": 3,
      "byteOffset": 7339584,
      "componentType": 5126,
      "count": 65532,
      "max": [
        0.93254721164703369,
        0.99983978271484375,
        0.99950975179672241,
        1
      ],
      "min": [
        -0.99999809265136719,
        -0.9811059832572937,
        -0.99949073791503906,
        1
      ],
      "type": "VEC4"
    },
    {
      "bufferView": 1,
      "byteOffset": 3669792,
      "componentType": 5126,
      "count": 65532,
      "max": [
        0.51865702867507935,
        0.85139298439025879
      ],
      "min": [
        0,
        0
      ],
      "type": "VEC2"
    },
    {
      "bufferView": 0,
      "byteOffset": 2752344,
      "componentType": 5125,
      "count": 98298,
      "max": [
        65531
      ],
      "min": [
        0
      ],
      "type": "SCALAR"
    },
    {
      "bufferView": 2,
      "byteOffset": 12582144,
      "componentType": 5126,
      "count": 45360,
      "max": [
        4.4764471054077148,
        2.1439199447631836,
        1.0781190395355225
      ],
      "min": [
        -2.1885550022125244,
        -4.1768589019775391,
        -2.4438700675964355
      ],
      "type": "VEC3"
    },
    {
      "bufferView": 2,
      "byteOffset": 13126464,
      "componentType": 5126,
      "count": 45360,
      "max": [
        0.99978750944137573,
        0.99997538328170776,
        0.99979686737060547
      ],
      "min": [
        -0.99952751398086548,
        -0.99992161989212036,
        -0.99989420175552368
      ],
      "type": "VEC3"
    },
    {
      "bufferView": 3,
      "byteOffset": 8388096,
      "componentType": 5126,
      "count": 45360,
      "max": [
        0.99995064735412598,
        0.99997466802597046,
        0.99941587448120117,
        1
      ],
      "min": [
        -0.99994039535522461,
        -0.99990981817245483,
        -0.99948197603225708,
        -1
      ],
      "type": "VEC4"
    },
    {
      "bufferView": 1,
      "byteOffset": 4194048,
      "componentType": 5126,
      "count": 45360,
      "max": [
        0.72559601068496704,
        0.98909300565719604
      ],
      "min": [
        0,
        0
      ],
      "type": "VEC2"
    },
    {
      "bufferView": 0,
      "byteOffset": 3145536,
      "componentType": 5125,
      "count": 68040,
      "max": [
        45359
      ],
      "min": [
        0
      ],
      "type": "SCALAR"
    }
  ],
  "asset": {
    "extras": {
      "author": "franever8681 (https://sketchfab.com/franever8681)",
      "license": "CC-BY-4.0 (http://creativecommons.org/licenses/by/4.0/)",
      "source": "https://sketchfab.com/models/5a68c1f0ad4145059e2e54e6cc7b0094",
      "title": "Hulky Baby"
    },
    "generator": "Sketchfab-3.18.7",
    "version": "2.0"
  },
  "bufferViews": [
    {
      "buffer": 0,
      "byteLength": 3417696,
      "byteOffset": 0,
      "name": "floatBufferViews",
      "target": 34963
    },
    {
      "buffer": 0,
      "byteLength": 4556928,
      "byteOffset": 3417696,
      "byteStride": 8,
      "name": "floatBufferViews",
      "target": 34962
    },
    {
      "buffer": 0,
      "byteLength": 13670784,
      "byteOffset": 7974624,
      "byteStride": 12,
      "name": "floatBufferViews",
      "target": 34962
    },
    {
      "buffer": 0,
      "byteLength": 9113856,
      "byteOffset": 21645408,
      "byteStride": 16,
      "name": "floatBufferViews",
      "target": 34962
    }
  ],
  "buffers": [
    {
      "byteLength": 30759264,
      "uri": "scene.bin"
    }
  ],
  "images": [
    {
      "uri": "textures/file1Material_baseColor.jpg"
    }
  ],
  "materials": [
    {
      "doubleSided": true,
      "emissiveFactor": [
        0,
        0,
        0
      ],
      "name": "file1Material",
      "pbrMetallicRoughness": {
        "baseColorFactor": [
          0.80000000000000004,
          0.80000000000000004,
          0.80000000000000004,
          1
        ],
        "baseColorTexture": {
          "index": 0,
          "texCoord": 0
        },
        "metallicFactor": 0,
        "roughnessFactor": 0.59999999999999998
      }
    }
  ],
  "meshes": [
    {
      "name": "ZBrushPolyMesh3D_2_file1Material_0",
      "primitives": [
        {
          "attributes": {
            "NORMAL": 1,
            "POSITION": 0,
            "TANGENT": 2,
            "TEXCOORD_0": 3
          },
          "indices": 4,
          "material": 0,
          "mode": 4
        }
      ]
    },
    {
      "name": "ZBrushPolyMesh3D_2_file1Material_0",
      "primitives": [
        {
          "attributes": {
            "NORMAL": 6,
            "POSITION": 5,
            "TANGENT": 7,
            "TEXCOORD_0": 8
          },
          "indices": 9,
          "material": 0,
          "mode": 4
        }
      ]
    },
    {
      "name": "ZBrushPolyMesh3D_2_file1Material_0",
      "primitives": [
        {
          "attributes": {
            "NORMAL": 11,
            "POSITION": 10,
            "TANGENT": 12,
            "TEXCOORD_0": 13
          },
          "indices": 14,
          "material": 0,
          "mode": 4
        }
      ]
    },
    {
      "name": "ZBrushPolyMesh3D_2_file1Material_0",
      "primitives": [
        {
          "attributes": {
            "NORMAL": 16,
            "POSITION": 15,
            "TANGENT": 17,
            "TEXCOORD_0": 18
          },
          "indices": 19,
          "material": 0,
          "mode": 4
        }
      ]
    },
    {
      "name": "ZBrushPolyMesh3D_2_file1Material_0",
      "primitives": [
        {
          "attributes": {
            "NORMAL": 21,
            "POSITION": 20,
            "TANGENT": 22,
            "TEXCOORD_0": 23
          },
          "indices": 24,
          "material": 0,
          "mode": 4
        }
      ]
    },
    {
      "name": "ZBrushPolyMesh3D_2_file1Material_0",
      "primitives": [
        {
          "attributes": {
            "NORMAL": 26,
            "POSITION": 25,
            "TANGENT": 27,
            "TEXCOORD_0": 28
          },
          "indices": 29,
          "material": 0,
          "mode": 4
        }
      ]
    },
    {
      "name": "ZBrushPolyMesh3D_2_file1Material_0",
      "primitives": [
        {
          "attributes": {
            "NORMAL": 31,
            "POSITION": 30,
            "TANGENT": 32,
            "TEXCOORD_0": 33
          },
          "indices": 34,
          "material": 0,
          "mode": 4
        }
      ]
    },
    {
      "name": "ZBrushPolyMesh3D_2_file1Material_0",
      "primitives": [
        {
          "attributes": {
            "NORMAL": 36,
            "POSITION": 35,
            "TANGENT": 37,
            "TEXCOORD_0": 38
          },
          "indices": 39,
          "material": 0,
          "mode": 4
        }
      ]
    },
    {
      "name": "ZBrushPolyMesh3D_2_file1Material_0",
      "primitives": [
        {
          "attributes": {
            "NORMAL": 41,
            "POSITION": 40,
            "TANGENT": 42,
            "TEXCOORD_0": 43
          },
          "indices": 44,
          "material": 0,
          "mode": 4
        }
      ]
    }
  ],
  "nodes": [
    {
      "children": [
        1
      ],
      "name": "RootNode (gltf orientation matrix)",
      "rotation": [
        -0.70710678118654746,
        -0,
        -0,
        0.70710678118654757
      ]
    },
    {
      "children": [
        2
      ],
      "name": "RootNode (model correction matrix)"
    },
    {
      "children": [
        3
      ],
      "matrix": [
        1,
        0,
        0,
        0,
        0,
        0,
        1,
        0,
        0,
        -1,
        0,
        0,
        0,
        0,
        0,
        1
      ],
      "name": "3e3bcaae6d154955aefa50736ad0d4a1.fbx"
    },
    {
      "children": [
        4
      ],
      "name": "RootNode"
    },
    {
      "children": [
        5,
        6,
        7,
        8,
        9,
        10,
        11,
        12,
        13
      ],
      "name": "ZBrushPolyMesh3D_2"
    },
    {
      "mesh": 0,
      "name": "ZBrushPolyMesh3D_2_file1Material_0"
    },
    {
      "mesh": 1,
      "name": "ZBrushPolyMesh3D_2_file1Material_0"
    },
    {
      "mesh": 2,
      "name": "ZBrushPolyMesh3D_2_file1Material_0"
    },
    {
      "mesh": 3,
      "name": "ZBrushPolyMesh3D_2_file1Material_0"
    },
    {
      "mesh": 4,
      "name": "ZBrushPolyMesh3D_2_file1Material_0"
    },
    {
      "mesh": 5,
      "name": "ZBrushPolyMesh3D_2_file1Material_0"
    },
    {
      "mesh": 6,
      "name": "ZBrushPolyMesh3D_2_file1Material_0"
    },
    {
      "mesh": 7,
      "name": "ZBrushPolyMesh3D_2_file1Material_0"
    },
    {
      "mesh": 8,
      "name": "ZBrushPolyMesh3D_2_file1Material_0"
    }
  ],
  "samplers": [
    {
      "magFilter": 9729,
      "minFilter": 9987,
      "wrapS": 10497,
      "wrapT": 10497
    }
  ],
  "scene": 0,
  "scenes": [
    {
      "name": "OSG_Scene",
      "nodes": [
        0
      ]
    }
  ],
  "textures": [
    {
      "sampler": 0,
      "source": 0
    }
  ]
}

