{
  "accessors": [
    {
      "bufferView": 2,
      "componentType": 5126,
      "count": 466,
      "max": [
        2.6436600685119629,
        7.4076900482177734,
        6.8915271759033203
      ],
      "min": [
        -2.6438100337982178,
        0.21320299804210663,
        -0.22756199538707733
      ],
      "type": "VEC3"
    },
    {
      "bufferView": 2,
      "byteOffset": 5592,
      "componentType": 5126,
      "count": 466,
      "max": [
        0.97280126810073853,
        0.99995154142379761,
        0.99763751029968262
      ],
      "min": [
        -0.95264911651611328,
        -0.99681299924850464,
        -0.99726474285125732
      ],
      "type": "VEC3"
    },
    {
      "bufferView": 3,
      "componentType": 5126,
      "count": 466,
      "max": [
        0.98927384614944458,
        0.99955886602401733,
        0.90826213359832764,
        1
      ],
      "min": [
        -0.97455364465713501,
        -0.93269908428192139,
        -0.9979240894317627,
        -1
      ],
      "type": "VEC4"
    },
    {
      "bufferView": 1,
      "componentType": 5126,
      "count": 466,
      "max": [
        0.99782001972198486,
        0.55338001251220703
      ],
      "min": [
        0.1583700031042099,
        0.11078999936580658
      ],
      "type": "VEC2"
    },
    {
      "bufferView": 0,
      "componentType": 5125,
      "count": 1968,
      "max": [
        465
      ],
      "min": [
        0
      ],
      "type": "SCALAR"
    },
    {
      "bufferView": 2,
      "byteOffset": 11184,
      "componentType": 5126,
      "count": 24716,
      "max": [
        3.7485771179199219,
        8.2206401824951172,
        6.1804637908935547
      ],
      "min": [
        -3.1513619422912598,
        -1.9413410425186157,
        0.02405799925327301
      ],
      "type": "VEC3"
    },
    {
      "bufferView": 2,
      "byteOffset": 307776,
      "componentType": 5126,
      "count": 24716,
      "max": [
        0.9999690055847168,
        0.99987649917602539,
        0.99999690055847168
      ],
      "min": [
        -0.9999813437461853,
        -0.99993038177490234,
        -0.99998676776885986
      ],
      "type": "VEC3"
    },
    {
      "bufferView": 3,
      "byteOffset": 7456,
      "componentType": 5126,
      "count": 24716,
      "max": [
        0.99998354911804199,
        0.99999439716339111,
        0.99996715784072876,
        1
      ],
      "min": [
        -0.99986135959625244,
        -0.99982225894927979,
        -0.99999338388442993,
        -1
      ],
      "type": "VEC4"
    },
    {
      "bufferView": 1,
      "byteOffset": 3728,
      "componentType": 5126,
      "count": 24716,
      "max": [
        0.99804002046585083,
        0.57734000682830811
      ],
      "min": [
        0.0019499999471008778,
        0.0019499999471008778
      ],
      "type": "VEC2"
    },
    {
      "bufferView": 0,
      "byteOffset": 7872,
      "componentType": 5125,
      "count": 139446,
      "max": [
        24715
      ],
      "min": [
        0
      ],
      "type": "SCALAR"
    }
  ],
  "asset": {
    "extras": {
      "author": "VirReal4 (https://sketchfab.com/VirReal4)",
      "license": "CC-BY-4.0 (http://creativecommons.org/licenses/by/4.0/)",
      "source": "https://sketchfab.com/models/ec088115ec8746d79c41f2db69665f15",
      "title": "Praying Mantis"
    },
    "generator": "Sketchfab-3.18.7",
    "version": "2.0"
  },
  "bufferViews": [
    {
      "buffer": 0,
      "byteLength": 565656,
      "byteOffset": 0,
      "name": "floatBufferViews",
      "target": 34963
    },
    {
      "buffer": 0,
      "byteLength": 201456,
      "byteOffset": 565656,
      "byteStride": 8,
      "name": "floatBufferViews",
      "target": 34962
    },
    {
      "buffer": 0,
      "byteLength": 604368,
      "byteOffset": 767112,
      "byteStride": 12,
      "name": "floatBufferViews",
      "target": 34962
    },
    {
      "buffer": 0,
      "byteLength": 402912,
      "byteOffset": 1371480,
      "byteStride": 16,
      "name": "floatBufferViews",
      "target": 34962
    }
  ],
  "buffers": [
    {
      "byteLength": 1774392,
      "uri": "scene.bin"
    }
  ],
  "images": [
    {
      "uri": "textures/PM3D_ZSphere_23_blinnSG_baseColor.jpg"
    }
  ],
  "materials": [
    {
      "doubleSided": true,
      "emissiveFactor": [
        0,
        0,
        0
      ],
      "name": "PM3D_ZSphere_23_blinnSG",
      "pbrMetallicRoughness": {
        "baseColorFactor": [
          1,
          1,
          1,
          1
        ],
        "baseColorTexture": {
          "index": 0,
          "texCoord": 0
        },
        "metallicFactor": 0,
        "roughnessFactor": 0.59999999999999998
      }
    }
  ],
  "meshes": [
    {
      "primitives": [
        {
          "attributes": {
            "NORMAL": 1,
            "POSITION": 0,
            "TANGENT": 2,
            "TEXCOORD_0": 3
          },
          "indices": 4,
          "material": 0,
          "mode": 4
        }
      ]
    },
    {
      "primitives": [
        {
          "attributes": {
            "NORMAL": 6,
            "POSITION": 5,
            "TANGENT": 7,
            "TEXCOORD_0": 8
          },
          "indices": 9,
          "material": 0,
          "mode": 4
        }
      ]
    }
  ],
  "nodes": [
    {
      "children": [
        1
      ],
      "name": "RootNode (gltf orientation matrix)",
      "rotation": [
        -0.70710678118654746,
        -0,
        -0,
        0.70710678118654757
      ]
    },
    {
      "children": [
        2
      ],
      "name": "RootNode (model correction matrix)"
    },
    {
      "children": [
        3,
        4
      ],
      "name": "Mantis.obj.cleaner.materialmerger.gles"
    },
    {
      "mesh": 0,
      "name": ""
    },
    {
      "mesh": 1,
      "name": ""
    }
  ],
  "samplers": [
    {
      "magFilter": 9729,
      "minFilter": 9987,
      "wrapS": 10497,
      "wrapT": 10497
    }
  ],
  "scene": 0,
  "scenes": [
    {
      "name": "OSG_Scene",
      "nodes": [
        0
      ]
    }
  ],
  "textures": [
    {
      "sampler": 0,
      "source": 0
    }
  ]
}

